<svg xmlns="http://www.w3.org/2000/svg" xmlns:xlink="http://www.w3.org/1999/xlink" width="1000" zoomAndPan="magnify" viewBox="0 0 750 749.999995" height="1000" preserveAspectRatio="xMidYMid meet" version="1.0"><defs><clipPath id="d937dd8fb7"><path d="M 198.515625 197.609375 L 293.746094 197.609375 L 293.746094 294.789062 L 198.515625 294.789062 Z M 198.515625 197.609375 " clip-rule="nonzero"/></clipPath><clipPath id="f366ca0845"><path d="M 293.746094 -93.644531 L 293.746094 266.691406 L 246.121094 294.496094 L 198.5 266.691406 L 198.5 -93.644531 L 246.121094 -65.839844 Z M 293.746094 -93.644531 " clip-rule="nonzero"/></clipPath><clipPath id="2ffc12bb98"><path d="M 198.515625 197.609375 L 551.238281 197.609375 L 551.238281 550.546875 L 198.515625 550.546875 Z M 198.515625 197.609375 " clip-rule="nonzero"/></clipPath><clipPath id="b587a3a39b"><path d="M 154.269531 531.367188 L 518.8125 146.222656 L 604.378906 227.222656 L 239.835938 612.359375 Z M 154.269531 531.367188 " clip-rule="nonzero"/></clipPath><clipPath id="077a37cfeb"><path d="M 302 299.484375 L 551.238281 299.484375 L 551.238281 550.546875 L 302 550.546875 Z M 302 299.484375 " clip-rule="nonzero"/></clipPath><clipPath id="b4a3056171"><path d="M 302.578125 684.984375 L 667.121094 299.847656 L 752.691406 380.839844 L 388.148438 765.984375 Z M 302.578125 684.984375 " clip-rule="nonzero"/></clipPath></defs><g clip-path="url(#d937dd8fb7)"><g clip-path="url(#f366ca0845)"><path fill="#003049" d="M 198.5 -93.644531 L 293.746094 -93.644531 L 293.746094 294.417969 L 198.5 294.417969 Z M 198.5 -93.644531 " fill-opacity="1" fill-rule="nonzero"/></g></g><g clip-path="url(#2ffc12bb98)"><g clip-path="url(#b587a3a39b)"><path fill="#fa7921" d="M 154.269531 531.367188 L 518.742188 146.300781 L 604.308594 227.300781 L 239.835938 612.359375 Z M 154.269531 531.367188 " fill-opacity="1" fill-rule="nonzero"/></g></g><g clip-path="url(#077a37cfeb)"><g clip-path="url(#b4a3056171)"><path fill="#fa7921" d="M 302.578125 684.984375 L 667.050781 299.925781 L 752.617188 380.917969 L 388.148438 765.984375 Z M 302.578125 684.984375 " fill-opacity="1" fill-rule="nonzero"/></g></g></svg>